<svg width="22" height="22" viewBox="0 0 22 22" fill="none" xmlns="http://www.w3.org/2000/svg">
    <g clip-path="url(#clip0)">
    <path d="M20.7865 0H1.21379C0.543705 0 0.00012207 0.543583 0.00012207 1.21367V20.7863C0.00012207 21.4573 0.543705 22 1.21379 22H11.75V13.4805H8.88171V10.1613H11.75V7.70917C11.75 4.86842 13.4861 3.32292 16.0207 3.32292C17.2353 3.32292 18.2794 3.41183 18.5837 3.45217V6.42217H16.8228C15.4478 6.42217 15.1801 7.08308 15.1801 8.04558V10.164H18.4655L18.0392 13.4915H15.1801V22H20.7855C21.4575 22 22.0001 21.4573 22.0001 20.7863V1.21367C22.0001 0.543583 21.4575 0 20.7865 0Z" fill="#34508E"/>
    </g>
    <defs>
    <clipPath id="clip0">
    <rect width="22" height="22" fill="white" transform="translate(0.00012207)"/>
    </clipPath>
    </defs>
</svg>